# xmcd
#
# Track frame offsets: 
#        150
#        13388
#        23961
#        37583
#        49458
#        61117
#        72387
#        83174
#        97094
#        107277
#        120709
#        132192
#        145289
#        158427
#        169887
#        182097
#        194577
#        206105
#        217382
#        230464
#
# Disc length: 3240 seconds
#
# Revision: 0
# Processed by: cddbd v1.5.2PL0 Copyright (c) Steve Scherf et al.
# Submitted via: ExactAudioCopy v0.99pb4
#
DISCID=250ca614
DTITLE=Carla Thomas - The platinum collection
DYEAR=2007
DGENRE=Soul
TTITLE0=B_A_B_Y
TTITLE1=Gee Whiz! (Look at his eyes)
TTITLE2=Tramp (feat Otis Redding)
TTITLE3=Comfort me
TTITLE4=Lovely Dovey (feat Otis Redding)
TTITLE5=A love of my own
TTITLE6=(Mama, Mama) Wish me good luck
TTITLE7=I'll bring it home to you
TTITLE8=What a fool I have been
TTITLE9=I've got no time to lose
TTITLE10=A boy named Tom
TTITLE11=A woman's love
TTITLE12=How do you quit (someone you love)
TTITLE13=Stop! Look what you are doing
TTITLE14=Let me be good to you
TTITLE15=WHat have you got to offer me
TTITLE16=Something good (is going to happen to you)
TTITLE17=When tomorrow comes
TTITLE18=I'll always have faith in you
TTITLE19=Pick up the pieces
EXTD=
EXTT0=
EXTT1=
EXTT2=
EXTT3=
EXTT4=
EXTT5=
EXTT6=
EXTT7=
EXTT8=
EXTT9=
EXTT10=
EXTT11=
EXTT12=
EXTT13=
EXTT14=
EXTT15=
EXTT16=
EXTT17=
EXTT18=
EXTT19=
PLAYORDER=
